<?xml version="1.0" encoding="utf-8"?>
<svg version="1.1" id="Layer_1" xmlns="http://www.w3.org/2000/svg" xmlns:xlink="http://www.w3.org/1999/xlink" x="0px" y="0px"
	 viewBox="0 0 30 30" style="enable-background:new 0 0 30 30;" xml:space="preserve">
<path style="fill:none;stroke:#000000;stroke-linejoin:round;stroke-miterlimit:10;" d="M19.9,23.6h-9.8c-0.4,0-0.8-0.3-0.8-0.8
	V11.8c0-0.4,0.3-0.8,0.8-0.8h9.8c0.4,0,0.8,0.3,0.8,0.8v11.1C20.7,23.2,20.3,23.6,19.9,23.6z"/>
<path style="fill:none;stroke:#000000;stroke-linejoin:round;stroke-miterlimit:10;" d="M21.2,8.7H8.8C8.4,8.7,8.1,9,8.1,9.4v0.9
	c0,0.4,0.3,0.7,0.7,0.7h12.4c0.4,0,0.7-0.3,0.7-0.7V9.4C21.9,9,21.6,8.7,21.2,8.7z"/>
<path style="fill:none;stroke:#000000;stroke-linejoin:round;stroke-miterlimit:10;" d="M12.3,8.7V7.5c0-0.6,0.6-1.1,1.3-1.1h2.8
	c0.7,0,1.3,0.5,1.3,1.1v1.2"/>
<path style="fill:none;stroke:#000000;stroke-width:0.6;stroke-linejoin:round;stroke-miterlimit:10;" d="M12.2,21.9h-0.4
	c-0.4,0-0.7-0.3-0.7-0.7v-7.8c0-0.4,0.3-0.7,0.7-0.7h0.4c0.4,0,0.7,0.3,0.7,0.7v7.8C12.9,21.6,12.6,21.9,12.2,21.9z"/>
<path style="fill:none;stroke:#000000;stroke-width:0.6;stroke-linejoin:round;stroke-miterlimit:10;" d="M15.2,21.9h-0.4
	c-0.4,0-0.7-0.3-0.7-0.7v-7.8c0-0.4,0.3-0.7,0.7-0.7h0.4c0.4,0,0.7,0.3,0.7,0.7v7.8C15.9,21.6,15.6,21.9,15.2,21.9z"/>
<path style="fill:none;stroke:#000000;stroke-width:0.6;stroke-linejoin:round;stroke-miterlimit:10;" d="M18.2,21.9h-0.4
	c-0.4,0-0.7-0.3-0.7-0.7v-7.8c0-0.4,0.3-0.7,0.7-0.7h0.4c0.4,0,0.7,0.3,0.7,0.7v7.8C18.9,21.6,18.6,21.9,18.2,21.9z"/>
</svg>
