<?xml version="1.0" encoding="utf-8"?>
<svg version="1.1" id="Layer_1" xmlns="http://www.w3.org/2000/svg" xmlns:xlink="http://www.w3.org/1999/xlink" x="0px" y="0px"
	 viewBox="0 0 30 30" style="enable-background:new 0 0 30 30;" xml:space="preserve">
<g>
	<path style="fill:none;stroke:#000000;stroke-width:0.6;stroke-linejoin:round;stroke-miterlimit:10;" d="M17.2,10.1l5,0.3l-5-5.4
		C17.8,6.8,18.2,8.5,17.2,10.1z"/>
	
		<line style="fill:none;stroke:#000000;stroke-width:0.6;stroke-linejoin:round;stroke-miterlimit:10;" x1="13.4" y1="12.6" x2="19.8" y2="12.6"/>
	
		<line style="fill:none;stroke:#000000;stroke-width:0.6;stroke-linejoin:round;stroke-miterlimit:10;" x1="13.4" y1="15" x2="19.8" y2="15"/>
	
		<line style="fill:none;stroke:#000000;stroke-width:0.6;stroke-linejoin:round;stroke-miterlimit:10;" x1="13.4" y1="19.6" x2="18.2" y2="19.6"/>
	<g>
		<path style="fill:none;stroke:#000000;stroke-miterlimit:10;" d="M22.3,13.7c-0.1-1.9-0.2-3.2-0.2-3.2l-5-5.4h-9c0,0,1,9.3,0,18.9
			c5.8,0,8.8,0,14,0c0.2-1.8,0.3-3.8,0.3-5.7"/>
		<line style="fill:none;stroke:#000000;stroke-miterlimit:10;" x1="22.3" y1="13.7" x2="22.3" y2="13.7"/>
		<path style="fill:none;" d="M22.4,18.2c0-1.7,0-3.2-0.1-4.5"/>
		<line style="fill:none;stroke:#000000;stroke-width:0.6;stroke-miterlimit:10;" x1="13.4" y1="17.3" x2="19" y2="17.3"/>
		<line style="fill:none;stroke:#000000;stroke-miterlimit:10;" x1="18.7" y1="17.3" x2="18.2" y2="17.8"/>
		<path style="fill:none;stroke:#000000;stroke-linecap:round;stroke-linejoin:round;stroke-miterlimit:10;" d="M22.3,13.7l1-1
			c0.4-0.4,1-0.3,1.4,0.1l0.8,0.8c0.4,0.4,0.5,1.1,0.1,1.4L24.6,16"/>
		
			<line style="fill:none;stroke:#000000;stroke-linecap:round;stroke-linejoin:round;stroke-miterlimit:10;" x1="22.4" y1="18.2" x2="24.6" y2="16"/>
		
			<line style="fill:none;stroke:#000000;stroke-linecap:round;stroke-linejoin:round;stroke-miterlimit:10;" x1="18.7" y1="17.3" x2="22.3" y2="13.7"/>
		
			<line style="fill:none;stroke:#000000;stroke-linecap:round;stroke-linejoin:round;stroke-miterlimit:10;" x1="20.5" y1="20.1" x2="22.4" y2="18.2"/>
		<path style="fill:none;stroke:#000000;stroke-width:0.6;stroke-linecap:round;stroke-linejoin:round;stroke-miterlimit:10;" d="
			M20.5,20.1c0.3-0.3-0.1-1-0.7-1.6s-1.4-0.9-1.6-0.7"/>
		<path style="fill:none;stroke:#000000;stroke-linecap:round;stroke-linejoin:round;stroke-miterlimit:10;" d="M18.9,20.5L18,20.8
			c-0.3,0.1-0.6-0.2-0.5-0.5l0.3-0.9"/>
		
			<line style="fill:none;stroke:#000000;stroke-linecap:round;stroke-linejoin:round;stroke-miterlimit:10;" x1="20.5" y1="20.1" x2="18.9" y2="20.5"/>
		
			<line style="fill:none;stroke:#000000;stroke-linecap:round;stroke-linejoin:round;stroke-miterlimit:10;" x1="18.2" y1="17.8" x2="17.7" y2="19.4"/>
		<path style="fill:none;stroke:#000000;stroke-width:0.6;stroke-linecap:round;stroke-linejoin:round;stroke-miterlimit:10;" d="
			M24.6,16c0.3-0.3-0.1-1-0.7-1.6c-0.6-0.6-1.3-0.9-1.6-0.7"/>
		<path style="fill:none;stroke:#000000;stroke-miterlimit:10;" d="M22.3,13.7C22.3,13.7,22.3,13.7,22.3,13.7"/>
		<path style="fill:none;" d="M18.9,20.5C18.9,20.6,18.9,20.6,18.9,20.5"/>
		<path style="fill:none;" d="M17.7,19.4C17.7,19.4,17.7,19.3,17.7,19.4"/>
		<path style="fill:none;stroke:#000000;stroke-width:0.6;stroke-linecap:round;stroke-linejoin:round;stroke-miterlimit:10;" d="
			M18.9,20.5c-0.1-0.2-0.2-0.5-0.5-0.7c-0.2-0.2-0.5-0.4-0.7-0.5"/>
	</g>
	<circle cx="11.6" cy="12.6" r="0.6"/>
	<circle cx="11.6" cy="15" r="0.6"/>
	<circle cx="11.6" cy="17.3" r="0.6"/>
	<circle cx="11.6" cy="19.6" r="0.6"/>
</g>
</svg>
