<?xml version="1.0" encoding="utf-8"?>
<svg version="1.1" id="Layer_1" xmlns="http://www.w3.org/2000/svg" xmlns:xlink="http://www.w3.org/1999/xlink" x="0px" y="0px"
	 viewBox="0 0 30 30" style="enable-background:new 0 0 30 30;" xml:space="preserve">
<path style="fill:none;stroke:#000000;stroke-miterlimit:10;" d="M12.7,16.7c0,0,0,0.5-0.8,1.7c-0.7,1.2-2.9,1.9-4.6,2.5
	C4.8,21.6,5.7,25,5.7,25h18.7c0,0,0.9-3.4-1.6-4.1c-1.7-0.5-3.9-1.3-4.6-2.5c-0.7-1.2-0.8-1.7-0.8-1.7"/>
<path style="fill:none;stroke:#000000;stroke-miterlimit:10;" d="M15,5c-2.9,0-4.2,1.7-4.7,4.3c-0.6,0-0.9,1-0.9,2.1
	c0.1,1.1,0.6,2,1.1,1.9c0,0,0.1,0,0.1,0c0.7,2.1,2.1,4.4,4.4,4.4"/>
<path style="fill:none;stroke:#000000;stroke-miterlimit:10;" d="M15,5c2.9,0,4.2,1.7,4.7,4.3c0.6,0,0.9,1,0.9,2.1
	c-0.1,1.1-0.6,2-1.1,1.9c0,0-0.1,0-0.1,0c-0.7,2.1-2.1,4.4-4.4,4.4"/>
</svg>
