<?xml version="1.0" encoding="utf-8"?>
<svg version="1.1" id="Layer_1" xmlns="http://www.w3.org/2000/svg" xmlns:xlink="http://www.w3.org/1999/xlink" x="0px" y="0px"
	 viewBox="0 0 30 30" style="enable-background:new 0 0 30 30;" xml:space="preserve">
<polyline style="fill:none;stroke:#000000;stroke-linejoin:round;stroke-miterlimit:10;" points="5,20 5,7.5 25,7.5 25,20 "/>
<rect x="6.9" y="9.4" style="fill:none;stroke:#000000;stroke-width:0.6;stroke-linejoin:round;stroke-miterlimit:10;" width="16.2" height="8.8"/>
<path style="fill:none;stroke:#000000;stroke-linejoin:round;stroke-miterlimit:10;" d="M5,20H3.5c-0.5,0-1,0.4-1,0.8v0.5
	c0,0.4,0.4,0.8,1,0.8h23.1c0.5,0,1-0.4,1-0.8v-0.5c0-0.4-0.4-0.8-1-0.8H25"/>
<line style="fill:none;stroke:#000000;stroke-width:0.6;stroke-linejoin:round;stroke-miterlimit:10;" x1="5" y1="20.2" x2="25" y2="20.2"/>
<path style="fill:none;stroke:#000000;stroke-width:0.6;stroke-linejoin:round;stroke-miterlimit:10;" d="M26.2,22.3v0.2
	c0,0.5-0.5,0.9-1,0.9H4.8c-0.6,0-1-0.4-1-0.9v-0.2"/>
</svg>
