<?xml version="1.0" encoding="utf-8"?>
<svg version="1.1" id="Layer_1" xmlns="http://www.w3.org/2000/svg" xmlns:xlink="http://www.w3.org/1999/xlink" x="0px" y="0px"
	 viewBox="0 0 30 30" style="enable-background:new 0 0 30 30;" xml:space="preserve">
<g>
	<path style="fill:none;stroke:#000000;stroke-linejoin:round;stroke-miterlimit:10;" d="M7.9,17.8L19,6.6c0.8-0.8,2.2-0.7,3.1,0.2
		l1.6,1.6c0.9,0.9,1,2.3,0.2,3.1L12.8,22.7"/>
	<path style="fill:none;stroke:#000000;stroke-linejoin:round;stroke-miterlimit:10;" d="M12.8,22.7c0.5-0.5-0.1-2.1-1.5-3.5
		c-1.4-1.4-2.9-2-3.5-1.5l-1.5,5.4c-0.2,0.7,0.4,1.3,1.1,1.1L12.8,22.7z"/>
	<path style="fill:none;stroke:#000000;stroke-linejoin:round;stroke-miterlimit:10;" d="M16.7,8.9c0.5-0.5,2.1,0.1,3.5,1.5
		c1.4,1.4,2,2.9,1.5,3.5"/>
	<path style="fill:none;stroke:#000000;stroke-width:0.6;stroke-linejoin:round;stroke-miterlimit:10;" d="M6.7,21.1
		c0.5,0.2,1.1,0.6,1.7,1.1c0.5,0.5,0.9,1.2,1.1,1.7"/>
	
		<line style="fill:none;stroke:#000000;stroke-width:0.6;stroke-linejoin:round;stroke-miterlimit:10;" x1="10.4" y1="18.3" x2="19.1" y2="9.5"/>
	
		<line style="fill:none;stroke:#000000;stroke-width:0.6;stroke-linejoin:round;stroke-miterlimit:10;" x1="12.3" y1="20.2" x2="21.1" y2="11.5"/>
</g>
</svg>
